<svg xmlns="http://www.w3.org/2000/svg" version="1.1" xmlns:xlink="http://www.w3.org/1999/xlink" xmlns:svgjs="http://svgjs.dev/svgjs" width="1000" height="202" viewBox="0 0 1000 202"><g transform="matrix(1,0,0,1,-0.6060562539728949,0.19608494737539672)"><svg viewBox="0 0 396 80" data-background-color="#ffffff" preserveAspectRatio="xMidYMid meet" height="202" width="1000" xmlns="http://www.w3.org/2000/svg" xmlns:xlink="http://www.w3.org/1999/xlink"><defs></defs><g id="tight-bounds" transform="matrix(1,0,0,1,0.23999827657326023,-0.07765740490114581)"><svg viewBox="0 0 395.52 80.15531480980229" height="80.15531480980229" width="395.52"><g><svg viewBox="0 0 656.9597713099812 133.13819095551997" height="80.15531480980229" width="395.52"><g transform="matrix(1,0,0,1,261.4397713099812,18.40043015376579)"><svg viewBox="0 0 395.52 96.3373306479884" height="96.3373306479884" width="395.52"><g><svg viewBox="0 0 395.52 96.3373306479884" height="96.3373306479884" width="395.52"><g><svg viewBox="0 0 395.52 96.3373306479884" height="96.3373306479884" width="395.52"><g transform="matrix(1,0,0,1,0,0)"><svg width="395.52" viewBox="-0.35567227005958557 -40.150001525878906 229.6856689453125 55.95000076293945" height="96.3373306479884" data-palette-color="#ffffff"><path d="M66.33-26.05Q68.75-31.45 70.6-34.23 72.45-37 74.08-37.58 75.7-38.15 76.28-38.15 76.85-38.15 76.85-38L76.85-38Q76.85-37.85 76.2-37.52 75.55-37.2 73.98-34.9 72.4-32.6 70-27.85 67.6-23.1 65.8-17.8L65.8-17.8Q68.85-17.8 69.67-18.1 70.5-18.4 70.67-18.2 70.85-18 70.2-17.55L70.2-17.55Q68.55-16.4 65.35-16.2L65.35-16.2Q65.3-16.1 64.55-13.8L64.55-13.8Q62.05-6.05 62.05-2.95L62.05-2.95Q62.05-1.2 62.68-0.5 63.3 0.2 64 0.2 64.7 0.2 65.55-0.4L65.55-0.4Q68.4-2.5 71.8-9.45L71.8-9.45Q72.2-10.3 72.58-10.15 72.95-10 72.55-9.1L72.55-9.1Q70.7-5.15 69.48-3.3 68.25-1.45 66.7 0.1L66.7 0.1Q64.65 2.05 62.6 2.05L62.6 2.05Q60.3 2.05 59.4 0.15L59.4 0.15Q58.95-0.75 58.95-1.5 58.95-2.25 58.98-3.08 59-3.9 59.15-5.23 59.3-6.55 59.88-8.53 60.45-10.5 60.78-11.53 61.1-12.55 61.75-14.3 62.4-16.05 62.45-16.2L62.45-16.2Q60.3-16.2 45.5-16.85L45.5-16.85Q42.45-7.75 35.9-0.55L35.9-0.55Q32.7 3 28.45 5.4L28.45 5.4Q22.75 8.55 16.45 8.55L16.45 8.55Q13.8 8.55 10.55 7.78 7.3 7 4.4 4.83 1.5 2.65 0.28-1.05-0.95-4.75 0.2-9.25L0.2-9.25Q0.8-11.55 2.88-13.55 4.95-15.55 6.3-15.6L6.3-15.6Q6.8-15.6 6.9-15.48 7-15.35 6.83-15.18 6.65-15 6.4-14.9L6.4-14.9Q4.9-14.25 3.3-12.05L3.3-12.05Q1.2-9.15 1.2-5.3L1.2-5.3Q1.2 0.7 7 3.65L7 3.65Q10.5 5.4 15.2 5.4L15.2 5.4Q17.25 5.4 19.05 5L19.05 5Q36 1.2 42.9-16.95L42.9-16.95Q41.6-16.95 40.38-16.38 39.15-15.8 38.78-15.8 38.4-15.8 38.35-16.1L38.35-16.1Q38.35-16.95 39.55-17.73 40.75-18.5 41.65-18.6L41.65-18.6 43.6-18.6Q46.8-26.6 50.9-34.8L50.9-34.8Q49.6-34.65 47.2-34.45 44.8-34.25 43.3-34.1 41.8-33.95 39.6-33.6 37.4-33.25 35.95-32.77 34.5-32.3 32.73-31.45 30.95-30.6 29.75-29.5L29.75-29.5Q26.9-26.8 25.7-22.9L25.7-22.9Q25.2-21.3 25.2-19.5 25.2-17.7 26.5-16 27.8-14.3 29.95-14.3L29.95-14.3Q34.2-14.3 36-19.2L36-19.2Q36.85-21.5 36.85-22.43 36.85-23.35 36.52-23.83 36.2-24.3 36.7-24.4L36.7-24.4Q37.05-24.45 37.3-24L37.3-24Q37.9-22.7 37.9-21.2 37.9-19.7 36.9-17.95L36.9-17.95Q35.2-14.85 32.3-13.8L32.3-13.8Q30.9-13.3 29.5-13.3 28.1-13.3 26.7-13.9L26.7-13.9Q24.05-15.05 22.8-17.8L22.8-17.8Q22-19.45 22-20.95 22-22.45 22.48-24.38 22.95-26.3 24.35-28.3 25.75-30.3 27.85-31.53 29.95-32.75 32.05-33.55 34.15-34.35 37.02-34.75 39.9-35.15 42.03-35.35 44.15-35.55 47.15-35.7 50.15-35.85 51.6-36L51.6-36Q52.15-36.95 53.28-38.33 54.4-39.7 55.2-39.93 56-40.15 56.45-40.15L56.45-40.15Q58.3-40.15 58.3-38.58 58.3-37 56.25-35.95 54.2-34.9 52.4-34.9L52.4-34.9Q51.05-32.3 48.58-25.63 46.1-18.95 45.95-18.6L45.95-18.6Q49.7-18.6 55.63-18.18 61.55-17.75 62.9-17.75L62.9-17.75Q63.9-20.65 66.33-26.05ZM55.8-38.6L55.8-38.6Q55.2-38.6 53.3-36.15L53.3-36.15Q56.55-36.65 56.5-37.9L56.5-37.9Q56.45-38.45 55.95-38.55L55.95-38.55Q55.9-38.6 55.8-38.6ZM70.15-2.9L70.15-2.9Q70.15-5.05 72-8.1L72-8.1Q71.2-8.1 71.55-8.9L71.55-8.9 72.45-10.65Q74.15-13.9 75.25-16.15L75.25-16.15Q75.75-17.2 77.2-17.2L77.2-17.2 80.25-17.2Q78.45-15.9 76.62-12.18 74.8-8.45 73.8-6.33 72.8-4.2 72.8-3.1 72.8-2 73.17-1.55 73.55-1.1 74.2-1.1L74.2-1.1Q75.15-1.1 76.85-3.1L76.85-3.1Q79.5-6.2 84.3-16.15L84.3-16.15Q84.85-17.2 86.25-17.2L86.25-17.2 88.95-17.2Q87.85-16.35 87.22-15.45 86.6-14.55 85.5-12.25L85.5-12.25Q82.5-6.25 82.15-4.3L82.15-4.3Q82-3.6 82-3L82-3Q82-1.4 83.1-1.3L83.1-1.3Q85.8-1.3 89.75-9.65L89.75-9.65Q90.05-10.35 90.35-10.2 90.65-10.05 90.65-9.8 90.65-9.55 90.2-8.65 89.75-7.75 89.32-6.9 88.9-6.05 88.02-4.58 87.15-3.1 86.4-2.25L86.4-2.25Q84.45-0.05 82.57-0.05 80.7-0.05 80-1.7L80-1.7Q79.7-2.45 79.7-3.6 79.7-4.75 80.2-6.45L80.2-6.45Q76.55-0.05 73.45-0.05L73.45-0.05Q70.75-0.05 70.3-2.3L70.3-2.3Q70.15-2.55 70.15-2.9ZM104.85-16.4L104.85-16.4Q98.7-5.6 98.7-2.3L98.7-2.3Q98.7-1 99.65-1L99.65-1Q102.2-1 106.5-9.65L106.5-9.65Q106.8-10.35 107.1-10.2 107.4-10.05 107.4-9.8 107.4-9.55 107.2-9.2L107.2-9.2Q104.55-3.85 102.72-1.83 100.9 0.2 99.07 0.2 97.25 0.2 96.3-1.2L96.3-1.2Q95.8-1.85 95.8-2.98 95.8-4.1 96.3-5.7 96.8-7.3 99.05-10.9L99.05-10.9Q99.6-11.8 99.6-12.33 99.6-12.85 98.75-12.85 97.9-12.85 95.5-10.6L95.5-10.6Q91.9-7.3 88.55-0.7L88.55-0.7Q88.25-0.2 87.87-0.08 87.5 0.05 86.4 0.1 85.3 0.15 84.95 0.35L84.95 0.35Q85.75-1.25 88.1-6.2L88.1-6.2Q92.3-14.95 93.6-16.2L93.6-16.2Q94.2-16.8 95.25-16.8L95.25-16.8Q95.45-16.8 96.27-16.65 97.1-16.5 97.5-16.6L97.5-16.6Q95.65-15.6 91.45-7.2L91.45-7.2Q93.8-10.1 95.72-11.83 97.65-13.55 100.35-15.03 103.05-16.5 104.3-16.5L104.3-16.5Q104.6-16.5 104.85-16.4ZM103.04 15.8L103.04 15.8Q98.34 15.8 98.34 11.95L98.34 11.95Q98.34 8.75 102.69 6.2L102.69 6.2Q106.39 4.05 112.14 2.15L112.14 2.15Q114.79 1.3 115.99 0.8L115.99 0.8Q117.29-3 117.29-7.5L117.29-7.5Q117.29-8.4 117.19-8.85L117.19-8.85Q115.79-6 113.34-3L113.34-3Q110.44 0.6 107.59-0.2L107.59-0.2Q104.99-1.3 104.99-4.5L104.99-4.5Q104.99-8.8 109.29-13.95L109.29-13.95Q111.64-16.75 114.79-17.5L114.79-17.5Q115.64-17.75 116.49-17.75L116.49-17.75Q118.74-17.75 120.89-16.25L120.89-16.25Q121.69-15.6 121.69-15.15 121.69-14.7 121.39-14.28 121.09-13.85 120.77-14.18 120.44-14.5 120.34-14.8L120.34-14.8Q119.69-16.65 118.24-16.65L118.24-16.65Q115.59-16.65 112.29-12.95L112.29-12.95Q110.44-10.85 109.09-8.45L109.09-8.45Q107.44-5.45 107.44-3.83 107.44-2.2 108.44-1.65L108.44-1.65Q108.79-1.5 109.14-1.5L109.14-1.5Q110.29-1.5 112.02-3.08 113.74-4.65 115.22-7.08 116.69-9.5 117.09-10.85 117.49-12.2 118.07-12.55 118.64-12.9 119.34-12.95 120.04-13 120.29-13.2L120.29-13.2Q120.69-10.95 120.69-7.93 120.69-4.9 119.64-1.05L119.64-1.05Q121.94-2.7 122.92-4 123.89-5.3 124.47-6.35 125.04-7.4 125.49-8.43 125.94-9.45 126.09-9.75 126.24-10.05 126.59-10.13 126.94-10.2 126.94-9.8L126.94-9.8Q126.94-9.55 126.79-9.2L126.79-9.2Q124.59-4.65 123.12-2.63 121.64-0.6 119.09 0.6L119.09 0.6Q117.89 4 115.62 7.35 113.34 10.7 109.89 13.25 106.44 15.8 103.04 15.8ZM99.39 12.9L99.39 12.9Q99.39 14.8 101.84 14.8L101.84 14.8Q103.29 14.8 105.12 13.95 106.94 13.1 108.14 12.2L108.14 12.2Q110.19 10.55 112.64 7.3L112.64 7.3Q114.49 4.7 115.49 2.25L115.49 2.25 113.74 2.85Q105.94 5.55 102.74 7.65L102.74 7.65Q100.39 9.2 99.64 11.6L99.64 11.6Q99.39 12.35 99.39 12.9ZM128.29-7.7L128.29-7.7Q127.59-6 127.59-3.9L127.59-3.9Q127.59-2.5 128.22-1.68 128.84-0.85 129.99-0.85L129.99-0.85Q134.54-0.85 138.24-9.4L138.24-9.4Q138.59-10.2 139.09-10.1L139.09-10.1Q139.29-10.05 139.29-9.85 139.29-9.65 138.17-7.23 137.04-4.8 135.89-3.3L135.89-3.3Q133.34 0.2 129.59 0.2L129.59 0.2Q127.59 0.2 126.19-1.1 124.79-2.4 124.79-4.65 124.79-6.9 125.87-9.43 126.94-11.95 128.79-14.13 130.64-16.3 133.04-17.3L133.04-17.3Q134.19-17.8 135.24-17.8 136.29-17.8 137.19-17.2L137.19-17.2Q138.04-16.5 138.04-15.65L138.04-15.65Q138.04-12.65 134.44-9.9L134.44-9.9Q133.34-9.05 131.34-8.38 129.34-7.7 128.29-7.7ZM136.69-15.7L136.69-15.7Q136.69-16.7 135.89-16.7L135.89-16.7Q134.49-16.7 131.64-13.25L131.64-13.25Q129.94-11.15 128.64-8.55L128.64-8.55Q129.49-8.55 131.12-9.15 132.74-9.75 133.94-10.75L133.94-10.75Q136.69-13.1 136.69-15.7ZM145.09-20.05L145.09-20.05Q145.09-17.8 142.24-15.8L142.24-15.8Q143.24-15.75 144.91-15.75 146.59-15.75 149.14-16L149.14-16Q149.24-15.85 149.24-15.2 149.24-14.55 148.64-13.28 148.04-12 147.56-11.08 147.09-10.15 146.66-9.33 146.24-8.5 145.71-7.3 145.19-6.1 144.84-5.1L144.84-5.1Q143.59-1.3 145.24-1.3L145.24-1.3Q147.34-1.3 151.44-9.65L151.44-9.65Q151.79-10.3 152.01-10.15 152.24-10 152.24-9.78 152.24-9.55 151.59-8.22 150.94-6.9 150.19-5.5 149.44-4.1 147.84-2.25L147.84-2.25Q145.94 0.05 144.19 0.05L144.19 0.05Q142.24 0.05 141.49-2.3L141.49-2.3Q141.34-2.75 141.34-3.65 141.34-4.55 141.91-6.05 142.49-7.55 143.74-9.7 144.99-11.85 145.14-12.23 145.29-12.6 145.29-12.95L145.29-12.95Q145.29-14.5 141.29-14.6L141.29-14.6 140.69-13Q137.54-4.75 134.64-1.95L134.64-1.95Q134.14-1.5 134.14-2.25L134.14-2.25Q134.14-2.4 134.24-2.6L134.24-2.6Q137.04-6.3 139.09-11.35 141.14-16.4 141.94-20.95L141.94-20.95Q142.24-22.5 143.34-22.5 144.44-22.5 144.94-21.1L144.94-21.1Q145.09-20.65 145.09-20.05ZM166.39-13.6L166.39-13.6Q166.39-11.4 165.24-8.75 164.09-6.1 162.06-3.65 160.04-1.2 157.14-0.3L157.14-0.3Q156.04 0 154.61 0 153.19 0 151.49-0.9L151.49-0.9 146.74 10.95Q145.99 12.55 145.34 13.05 144.69 13.55 144.09 13.55 143.49 13.55 143.36 13.55 143.24 13.55 142.46 13.4 141.69 13.25 141.29 13.3L141.29 13.3Q142.39 12.25 146.86 3.33 151.34-5.6 151.94-8.7L151.94-8.7Q151.39-7.9 150.89-7.85L150.89-7.85Q150.59-7.85 150.89-8.43 151.19-9 151.89-10.65L151.89-10.65Q152.79-12.8 152.79-14.63 152.79-16.45 152.09-16.75L152.09-16.75Q155.09-17.25 155.59-17.23 156.09-17.2 156.21-16.8 156.34-16.4 156.34-15.9L156.34-15.9Q156.34-12.85 154.94-9.1L154.94-9.1 155.94-10.7Q157.74-13.6 158.56-14.45 159.39-15.3 160.34-16.2L160.34-16.2Q161.79-17.6 163.14-17.6L163.14-17.6Q163.54-17.6 163.89-17.5L163.89-17.5Q166.39-16.85 166.39-13.6ZM163.99-14.1L163.99-14.1Q163.99-14.9 163.66-15.58 163.34-16.25 162.64-16.25L162.64-16.25Q160.89-16.25 158.56-13 156.24-9.75 151.89-1.65L151.89-1.65Q152.54-1 153.69-1 154.84-1 156.94-2.75L156.94-2.75Q160.29-5.55 162.54-9.7L162.54-9.7Q163.99-12.4 163.99-14.1ZM175.03-19.45Q174.33-18.85 173.48-18.85 172.63-18.85 172.13-19.45 171.63-20.05 171.73-20.9L171.73-20.9Q171.88-21.75 172.58-22.35 173.28-22.95 174.13-22.95 174.98-22.95 175.51-22.35 176.03-21.75 175.88-20.9 175.73-20.05 175.03-19.45ZM170.13-1.1L170.13-1.1Q171.08-1.1 172.13-2.05L172.13-2.05Q173.98-3.9 176.83-9.6L176.83-9.6Q177.18-10.35 177.53-10.05L177.53-10.05Q177.63-9.95 177.63-9.73 177.63-9.5 177.23-8.63 176.83-7.75 176.51-7.05 176.18-6.35 175.26-4.78 174.33-3.2 173.58-2.35L173.58-2.35Q171.53 0 169.71 0 167.88 0 167.08-1.1 166.28-2.2 166.28-3.55 166.28-4.9 166.93-6.5L166.93-6.5 170.13-14.65Q170.23-14.95 170.23-15.45 170.23-15.95 169.63-16.75L169.63-16.75 172.38-16.8Q173.53-16.8 173.73-16.38 173.93-15.95 173.43-15.05L173.43-15.05 169.43-5.7Q168.58-3.85 168.58-2.55L168.58-2.55Q168.58-1.1 170.13-1.1ZM168.73 15.5L168.73 15.5Q166.58 15.5 165.46 14.2 164.33 12.9 164.33 11.55 164.33 10.2 165.16 8.95 165.98 7.7 167.21 6.78 168.43 5.85 169.58 5.23 170.73 4.6 172.81 3.83 174.88 3.05 176.03 2.68 177.18 2.3 179.63 1.55 182.08 0.8 182.88 0.55L182.88 0.55Q183.78-2.35 183.78-3.85L183.78-3.85Q183.78-6.45 182.33-6.45L182.33-6.45Q182.13-6.45 181.93-6.4L181.93-6.4Q179.53-5.15 179.08-5.5L179.08-5.5Q178.83-5.7 178.88-6 178.93-6.3 179.33-6.4L179.33-6.4Q182.73-7.45 184.93-10.8L184.93-10.8Q185.58-11.8 185.58-12.65 185.58-13.5 184.88-14.3 184.18-15.1 183.38-15.1L183.38-15.1Q180.88-15.1 179.23-12.25L179.23-12.25Q177.83-9.9 176.58-7.25L176.58-7.25Q176.28-6.55 175.93-6.78 175.58-7 175.98-7.8L175.98-7.8Q178.63-13 178.93-13.5L178.93-13.5Q181.18-17.6 185.08-17.6L185.08-17.6Q186.83-17.6 187.73-16.3L187.73-16.3Q188.23-15.6 188.23-14.23 188.23-12.85 186.91-10.88 185.58-8.9 183.33-7.55L183.33-7.55Q183.38-7.55 183.43-7.55L183.43-7.55Q186.68-7.55 186.78-4.3L186.78-4.3Q186.78-2.4 186.23-0.65L186.23-0.65Q190.03-1.4 193.93-9.6L193.93-9.6Q194.13-10.05 194.43-10.1L194.43-10.1Q194.78-10.25 194.78-9.8L194.78-9.8Q194.78-9.25 193.48-6.9 192.18-4.55 191.03-3L191.03-3Q188.93 0 185.93 0.6L185.93 0.6Q183.98 5.95 180.16 9.78 176.33 13.6 171.03 15.15L171.03 15.15Q169.78 15.5 168.73 15.5ZM166.38 10.55L166.38 10.55Q166.08 11.5 166.08 12.5 166.08 13.5 166.83 13.95 167.58 14.4 168.23 14.4L168.23 14.4Q170.63 14.4 173.51 12.58 176.38 10.75 178.78 7.95 181.18 5.15 182.43 1.8L182.43 1.8Q181.38 2.15 179.13 2.8 176.88 3.45 175.58 3.85L175.58 3.85Q172.08 4.95 170.03 6.15L170.03 6.15Q167.33 7.7 166.38 10.55ZM185.78 15.5L185.78 15.5Q183.63 15.5 182.5 14.2 181.38 12.9 181.38 11.55 181.38 10.2 182.2 8.95 183.03 7.7 184.25 6.78 185.48 5.85 186.63 5.23 187.78 4.6 189.85 3.83 191.93 3.05 193.08 2.68 194.23 2.3 196.68 1.55 199.13 0.8 199.93 0.55L199.93 0.55Q200.83-2.35 200.83-3.85L200.83-3.85Q200.83-6.45 199.38-6.45L199.38-6.45Q199.18-6.45 198.98-6.4L198.98-6.4Q196.58-5.15 196.13-5.5L196.13-5.5Q195.88-5.7 195.93-6 195.98-6.3 196.38-6.4L196.38-6.4Q199.78-7.45 201.98-10.8L201.98-10.8Q202.63-11.8 202.63-12.65 202.63-13.5 201.93-14.3 201.23-15.1 200.43-15.1L200.43-15.1Q197.93-15.1 196.28-12.25L196.28-12.25Q194.88-9.9 193.63-7.25L193.63-7.25Q193.33-6.55 192.98-6.78 192.63-7 193.03-7.8L193.03-7.8Q195.68-13 195.98-13.5L195.98-13.5Q198.23-17.6 202.13-17.6L202.13-17.6Q203.88-17.6 204.78-16.3L204.78-16.3Q205.28-15.6 205.28-14.23 205.28-12.85 203.95-10.88 202.63-8.9 200.38-7.55L200.38-7.55Q200.43-7.55 200.48-7.55L200.48-7.55Q203.73-7.55 203.83-4.3L203.83-4.3Q203.83-2.4 203.28-0.65L203.28-0.65Q207.08-1.4 210.98-9.6L210.98-9.6Q211.18-10.05 211.48-10.1L211.48-10.1Q211.83-10.25 211.83-9.8L211.83-9.8Q211.83-9.25 210.53-6.9 209.23-4.55 208.08-3L208.08-3Q205.98 0 202.98 0.6L202.98 0.6Q201.03 5.95 197.2 9.78 193.38 13.6 188.08 15.15L188.08 15.15Q186.83 15.5 185.78 15.5ZM183.43 10.55L183.43 10.55Q183.13 11.5 183.13 12.5 183.13 13.5 183.88 13.95 184.63 14.4 185.28 14.4L185.28 14.4Q187.68 14.4 190.55 12.58 193.43 10.75 195.83 7.95 198.23 5.15 199.48 1.8L199.48 1.8Q198.43 2.15 196.18 2.8 193.93 3.45 192.63 3.85L192.63 3.85Q189.13 4.95 187.08 6.15L187.08 6.15Q184.38 7.7 183.43 10.55ZM226.18-13.55Q225.28-12.65 223.63-9.47 221.98-6.3 221.65-4.73 221.33-3.15 221.33-2.18 221.33-1.2 222.08-1.2L222.08-1.2Q223.03-1.2 224.43-2.95L224.43-2.95Q226.48-5.5 228.48-9.6L228.48-9.6Q228.68-10.05 228.93-10.1L228.93-10.1Q229.33-10.25 229.33-9.8L229.33-9.8Q229.33-9.55 229.18-9.2L229.18-9.2Q224.58 0.1 221.43 0.1L221.43 0.1Q219.98 0.1 219.08-1.3L219.08-1.3Q218.63-2.05 218.63-3.3 218.63-4.55 219.13-6.35L219.13-6.35Q215.13 0.1 212.23 0.1L212.23 0.1Q211.43 0.1 210.78-0.4L210.78-0.4Q209.28-1.45 209.28-4L209.28-4Q209.28-8.9 213.53-13.95L213.53-13.95Q215.93-16.75 219.43-17.6L219.43-17.6Q220.38-17.85 221.23-17.85L221.23-17.85Q223.53-17.85 225.13-16.25L225.13-16.25Q225.63-15.7 225.43-15.2 225.23-14.7 224.58-14.8L224.58-14.8Q224.03-16.6 222.18-16.6L222.18-16.6Q220.03-16.6 216.88-13.2L216.88-13.2Q215.08-11.2 213.53-8.5L213.53-8.5Q211.58-5.25 211.58-3.3 211.58-1.35 212.83-1.35L212.83-1.35Q215.83-1.35 220.68-10.55L220.68-10.55Q221.63-12.4 222.28-13.08 222.93-13.75 223.93-13.75L223.93-13.75Q224.13-13.75 224.95-13.6 225.78-13.45 226.18-13.55L226.18-13.55Z" opacity="1" transform="matrix(1,0,0,1,0,0)" fill="#ffffff" class="undefined-text-0" data-fill-palette-color="primary" id="text-0"></path></svg></g></svg></g></svg></g></svg></g><g><svg viewBox="0 0 238.6968396399267 133.13819095551997" height="133.13819095551997" width="238.6968396399267"><g><svg xmlns="http://www.w3.org/2000/svg" xmlns:xlink="http://www.w3.org/1999/xlink" version="1.1" x="0" y="0" viewBox="4.286365509033203 24.48699951171875 92.4881591796875 51.58721923828125" enable-background="new 0 0 100 100" xml:space="preserve" height="133.13819095551997" width="238.6968396399267" class="icon-icon-0" data-fill-palette-color="accent" id="icon-0"><path d="M96.562 62.695l-0.311-2.181c-0.3-1.686-0.748-3.259-1.427-4.512-2.527-4.664-21.781-29.054-27.316-30.636-0.926-0.265-3.389-0.879-6.28-0.879-3.969 0-7.205 1.159-9.361 3.353-1.945 1.979-3 4.738-3.141 8.214-2.732 1.249-9.46 4.648-11.314 8.562-0.935 1.974-4.817 3.736-7.937 5.154-2.51 1.14-4.678 2.125-6.004 3.35-0.712 0.657-1.678 1.634-2.792 2.762-3.172 3.21-7.966 8.062-10.814 9.262-3.224 1.357-5.355 3.561-5.563 5.751-0.111 1.173 0.374 2.242 1.299 2.858 1.666 1.11 7.711 1.94 12.003 1.94 0.905 0 1.779-0.034 2.592-0.106 2.44-0.223 11.275-0.403 19.694-0.403 10.072 0 14.617 0.246 15.45 0.457 1.746 0.442 3.311 0.419 5.603 0.246 1.5-0.11 3.247-0.239 5.825-0.193 2.647 0.052 5.091 0.155 7.103 0.242 1.79 0.075 3.245 0.138 4.214 0.138 0.651 0 1.066-0.026 1.351-0.079 0.105-0.013 0.645-0.056 3.195-0.056 4.563 0 11.933 0.135 11.937 0.135 0.965 0.014 1.668-0.648 1.782-1.544C96.394 74.171 97.126 68.229 96.562 62.695zM46.117 46.308c3.599-0.917 6.888-0.204 7.346 1.596 0.458 1.797-2.085 4.002-5.683 4.918-3.599 0.917-6.887 0.204-7.346-1.596C39.977 49.429 42.521 47.226 46.117 46.308zM28.83 55.225c3.478-0.294 6.408 0.98 6.544 2.85 0.139 1.868-2.568 3.627-6.044 3.921-3.478 0.295-6.408-0.98-6.544-2.851C22.649 57.276 25.354 55.521 28.83 55.225zM68.728 71.552c-0.099 0.214-0.146 0.436-0.153 0.656-0.569-0.016-1.146-0.03-1.737-0.043-0.409-0.007-0.797-0.01-1.169-0.01-2.137 0-3.719 0.118-4.989 0.213-1.832 0.139-3.095 0.2-4.474-0.147-1.843-0.468-9.89-0.565-16.315-0.565-8.652 0-17.443 0.183-20.014 0.417-0.599 0.055-1.252 0.072-1.912 0.079 6.599-2.576 14.378-5.079 16.664-4.546 1.353 0.322 2.363 0.663 3.255 0.963 2.088 0.705 3.741 1.262 6.725 0.329 0.837-0.262 1.699-0.604 2.57-0.954 3.061-1.224 5.039-1.884 6.7-0.719 3.797 2.659 6.9 2.202 9.901 1.768l0.234-0.032c2.237-0.328 4.478-0.024 4.998 0.672C69.246 69.945 69.143 70.646 68.728 71.552zM63.599 61.02c-4.466 0.331-8.229-1.068-8.409-3.131-0.181-2.062 3.292-4.004 7.756-4.336 4.464-0.335 8.23 1.068 8.41 3.13C71.536 58.743 68.063 60.688 63.599 61.02zM77.548 58.425c-0.728-2.467-1.829-4.981-3.479-6.277-4.092-3.216-9.187-7.505-11.213-9.899-0.269-0.317-5.652-6.588-10.517-7.036 0.231-2.092 0.908-3.74 2.046-4.897 1.866-1.898 4.752-2.297 6.844-2.297 2.447 0 4.527 0.52 5.309 0.742 3.187 0.91 17.306 17.467 23.131 25.74-1.961-0.796-4.229-1.003-6.721-0.068C80.421 55.379 78.722 56.739 77.548 58.425zM93.012 72.517c-2.44-0.038-7.121-0.106-10.382-0.106-2.964 0-3.498 0.054-3.79 0.106-0.136 0.021-0.346 0.031-0.608 0.035 0.013-0.229 0.026-0.475 0.036-0.7 0.409-8.403 0.806-12.198 5.92-14.114 4.326-1.626 7.479 2.22 8.7 4.07C93.412 65.382 93.255 69.749 93.012 72.517z" fill="#ffffff" data-fill-palette-color="accent"></path></svg></g></svg></g></svg></g></svg><rect width="395.52" height="80.15531480980229" fill="none" stroke="none" visibility="hidden"></rect></g></svg></g></svg>